<?xml version="1.0" encoding="utf-8" standalone="no"?>
<!DOCTYPE svg PUBLIC "-//W3C//DTD SVG 1.1//EN"
  "http://www.w3.org/Graphics/SVG/1.1/DTD/svg11.dtd">
<svg height="432pt" version="1.1" viewBox="0 0 576 432" width="576pt" xmlns="http://www.w3.org/2000/svg" xmlns:xlink="http://www.w3.org/1999/xlink">
 <metadata>
  <rdf:RDF xmlns:cc="http://creativecommons.org/ns#" xmlns:dc="http://purl.org/dc/elements/1.1/" xmlns:rdf="http://www.w3.org/1999/02/22-rdf-syntax-ns#">
   <cc:Work>
    <dc:type rdf:resource="http://purl.org/dc/dcmitype/StillImage"/>
    <dc:date>2022-08-16T13:42:01.073303</dc:date>
    <dc:format>image/svg+xml</dc:format>
    <dc:creator>
     <cc:Agent>
      <dc:title>Matplotlib v3.4.3, https://matplotlib.org/</dc:title>
     </cc:Agent>
    </dc:creator>
   </cc:Work>
  </rdf:RDF>
 </metadata>
 <defs>
  <style type="text/css">*{stroke-linecap:butt;stroke-linejoin:round;}</style>
 </defs>
 <g id="figure_1">
  <g id="patch_1">
   <path d="M 0 432 
L 576 432 
L 576 0 
L 0 0 
z
" style="fill:#ffffff;"/>
  </g>
  <g id="axes_1">
   <g id="patch_2">
    <path d="M 72 203.04 
L 518.4 203.04 
L 518.4 51.84 
L 72 51.84 
z
" style="fill:#ffffff;"/>
   </g>
   <g id="patch_3">
    <path clip-path="url(#p8835d57e73)" d="M 82.628571 203.04 
L 103.885714 203.04 
L 103.885714 197.21002 
L 82.628571 197.21002 
z
" style="fill:#c45aec;"/>
   </g>
   <g id="patch_4">
    <path clip-path="url(#p8835d57e73)" d="M 146.4 203.04 
L 167.657143 203.04 
L 167.657143 158.392365 
L 146.4 158.392365 
z
" style="fill:#c45aec;"/>
   </g>
   <g id="patch_5">
    <path clip-path="url(#p8835d57e73)" d="M 210.171429 203.04 
L 231.428571 203.04 
L 231.428571 65.660139 
L 210.171429 65.660139 
z
" style="fill:#c45aec;"/>
   </g>
   <g id="patch_6">
    <path clip-path="url(#p8835d57e73)" d="M 273.942857 203.04 
L 295.2 203.04 
L 295.2 119.932217 
L 273.942857 119.932217 
z
" style="fill:#c45aec;"/>
   </g>
   <g id="patch_7">
    <path clip-path="url(#p8835d57e73)" d="M 337.714286 203.04 
L 358.971429 203.04 
L 358.971429 88.827992 
L 337.714286 88.827992 
z
" style="fill:#c45aec;"/>
   </g>
   <g id="patch_8">
    <path clip-path="url(#p8835d57e73)" d="M 401.485714 203.04 
L 422.742857 203.04 
L 422.742857 127.186403 
L 401.485714 127.186403 
z
" style="fill:#c45aec;"/>
   </g>
   <g id="patch_9">
    <path clip-path="url(#p8835d57e73)" d="M 465.257143 203.04 
L 486.514286 203.04 
L 486.514286 135.48531 
L 465.257143 135.48531 
z
" style="fill:#c45aec;"/>
   </g>
   <g id="patch_10">
    <path clip-path="url(#p8835d57e73)" d="M 103.885714 203.04 
L 125.142857 203.04 
L 125.142857 199.013613 
L 103.885714 199.013613 
z
" style="fill:#f9b7ff;"/>
   </g>
   <g id="patch_11">
    <path clip-path="url(#p8835d57e73)" d="M 167.657143 203.04 
L 188.914286 203.04 
L 188.914286 159.592652 
L 167.657143 159.592652 
z
" style="fill:#f9b7ff;"/>
   </g>
   <g id="patch_12">
    <path clip-path="url(#p8835d57e73)" d="M 231.428571 203.04 
L 252.685714 203.04 
L 252.685714 59.285892 
L 231.428571 59.285892 
z
" style="fill:#f9b7ff;"/>
   </g>
   <g id="patch_13">
    <path clip-path="url(#p8835d57e73)" d="M 295.2 203.04 
L 316.457143 203.04 
L 316.457143 119.513696 
L 295.2 119.513696 
z
" style="fill:#f9b7ff;"/>
   </g>
   <g id="patch_14">
    <path clip-path="url(#p8835d57e73)" d="M 358.971429 203.04 
L 380.228571 203.04 
L 380.228571 86.819226 
L 358.971429 86.819226 
z
" style="fill:#f9b7ff;"/>
   </g>
   <g id="patch_15">
    <path clip-path="url(#p8835d57e73)" d="M 422.742857 203.04 
L 444 203.04 
L 444 127.372125 
L 422.742857 127.372125 
z
" style="fill:#f9b7ff;"/>
   </g>
   <g id="patch_16">
    <path clip-path="url(#p8835d57e73)" d="M 486.514286 203.04 
L 507.771429 203.04 
L 507.771429 135.299194 
L 486.514286 135.299194 
z
" style="fill:#f9b7ff;"/>
   </g>
   <g id="matplotlib.axis_1"/>
   <g id="matplotlib.axis_2">
    <g id="ytick_1">
     <g id="line2d_1">
      <defs>
       <path d="M 0 0 
L -3.5 0 
" id="me66453a201" style="stroke:#000000;stroke-width:0.8;"/>
      </defs>
      <g>
       <use style="stroke:#000000;stroke-width:0.8;" x="72" xlink:href="#me66453a201" y="203.04"/>
      </g>
     </g>
     <g id="text_1">
      <!-- 0 -->
      <g transform="translate(58.6375 206.839219)scale(0.1 -0.1)">
       <defs>
        <path d="M 2034 4250 
Q 1547 4250 1301 3770 
Q 1056 3291 1056 2328 
Q 1056 1369 1301 889 
Q 1547 409 2034 409 
Q 2525 409 2770 889 
Q 3016 1369 3016 2328 
Q 3016 3291 2770 3770 
Q 2525 4250 2034 4250 
z
M 2034 4750 
Q 2819 4750 3233 4129 
Q 3647 3509 3647 2328 
Q 3647 1150 3233 529 
Q 2819 -91 2034 -91 
Q 1250 -91 836 529 
Q 422 1150 422 2328 
Q 422 3509 836 4129 
Q 1250 4750 2034 4750 
z
" id="DejaVuSans-30" transform="scale(0.015625)"/>
       </defs>
       <use xlink:href="#DejaVuSans-30"/>
      </g>
     </g>
    </g>
    <g id="ytick_2">
     <g id="line2d_2">
      <g>
       <use style="stroke:#000000;stroke-width:0.8;" x="72" xlink:href="#me66453a201" y="176.066335"/>
      </g>
     </g>
     <g id="text_2">
      <!-- 1 -->
      <g transform="translate(58.6375 179.865554)scale(0.1 -0.1)">
       <defs>
        <path d="M 794 531 
L 1825 531 
L 1825 4091 
L 703 3866 
L 703 4441 
L 1819 4666 
L 2450 4666 
L 2450 531 
L 3481 531 
L 3481 0 
L 794 0 
L 794 531 
z
" id="DejaVuSans-31" transform="scale(0.015625)"/>
       </defs>
       <use xlink:href="#DejaVuSans-31"/>
      </g>
     </g>
    </g>
    <g id="ytick_3">
     <g id="line2d_3">
      <g>
       <use style="stroke:#000000;stroke-width:0.8;" x="72" xlink:href="#me66453a201" y="149.09267"/>
      </g>
     </g>
     <g id="text_3">
      <!-- 2 -->
      <g transform="translate(58.6375 152.891888)scale(0.1 -0.1)">
       <defs>
        <path d="M 1228 531 
L 3431 531 
L 3431 0 
L 469 0 
L 469 531 
Q 828 903 1448 1529 
Q 2069 2156 2228 2338 
Q 2531 2678 2651 2914 
Q 2772 3150 2772 3378 
Q 2772 3750 2511 3984 
Q 2250 4219 1831 4219 
Q 1534 4219 1204 4116 
Q 875 4013 500 3803 
L 500 4441 
Q 881 4594 1212 4672 
Q 1544 4750 1819 4750 
Q 2544 4750 2975 4387 
Q 3406 4025 3406 3419 
Q 3406 3131 3298 2873 
Q 3191 2616 2906 2266 
Q 2828 2175 2409 1742 
Q 1991 1309 1228 531 
z
" id="DejaVuSans-32" transform="scale(0.015625)"/>
       </defs>
       <use xlink:href="#DejaVuSans-32"/>
      </g>
     </g>
    </g>
    <g id="ytick_4">
     <g id="line2d_4">
      <g>
       <use style="stroke:#000000;stroke-width:0.8;" x="72" xlink:href="#me66453a201" y="122.119005"/>
      </g>
     </g>
     <g id="text_4">
      <!-- 3 -->
      <g transform="translate(58.6375 125.918223)scale(0.1 -0.1)">
       <defs>
        <path d="M 2597 2516 
Q 3050 2419 3304 2112 
Q 3559 1806 3559 1356 
Q 3559 666 3084 287 
Q 2609 -91 1734 -91 
Q 1441 -91 1130 -33 
Q 819 25 488 141 
L 488 750 
Q 750 597 1062 519 
Q 1375 441 1716 441 
Q 2309 441 2620 675 
Q 2931 909 2931 1356 
Q 2931 1769 2642 2001 
Q 2353 2234 1838 2234 
L 1294 2234 
L 1294 2753 
L 1863 2753 
Q 2328 2753 2575 2939 
Q 2822 3125 2822 3475 
Q 2822 3834 2567 4026 
Q 2313 4219 1838 4219 
Q 1578 4219 1281 4162 
Q 984 4106 628 3988 
L 628 4550 
Q 988 4650 1302 4700 
Q 1616 4750 1894 4750 
Q 2613 4750 3031 4423 
Q 3450 4097 3450 3541 
Q 3450 3153 3228 2886 
Q 3006 2619 2597 2516 
z
" id="DejaVuSans-33" transform="scale(0.015625)"/>
       </defs>
       <use xlink:href="#DejaVuSans-33"/>
      </g>
     </g>
    </g>
    <g id="ytick_5">
     <g id="line2d_5">
      <g>
       <use style="stroke:#000000;stroke-width:0.8;" x="72" xlink:href="#me66453a201" y="95.145339"/>
      </g>
     </g>
     <g id="text_5">
      <!-- 4 -->
      <g transform="translate(58.6375 98.944558)scale(0.1 -0.1)">
       <defs>
        <path d="M 2419 4116 
L 825 1625 
L 2419 1625 
L 2419 4116 
z
M 2253 4666 
L 3047 4666 
L 3047 1625 
L 3713 1625 
L 3713 1100 
L 3047 1100 
L 3047 0 
L 2419 0 
L 2419 1100 
L 313 1100 
L 313 1709 
L 2253 4666 
z
" id="DejaVuSans-34" transform="scale(0.015625)"/>
       </defs>
       <use xlink:href="#DejaVuSans-34"/>
      </g>
     </g>
    </g>
    <g id="ytick_6">
     <g id="line2d_6">
      <g>
       <use style="stroke:#000000;stroke-width:0.8;" x="72" xlink:href="#me66453a201" y="68.171674"/>
      </g>
     </g>
     <g id="text_6">
      <!-- 5 -->
      <g transform="translate(58.6375 71.970893)scale(0.1 -0.1)">
       <defs>
        <path d="M 691 4666 
L 3169 4666 
L 3169 4134 
L 1269 4134 
L 1269 2991 
Q 1406 3038 1543 3061 
Q 1681 3084 1819 3084 
Q 2600 3084 3056 2656 
Q 3513 2228 3513 1497 
Q 3513 744 3044 326 
Q 2575 -91 1722 -91 
Q 1428 -91 1123 -41 
Q 819 9 494 109 
L 494 744 
Q 775 591 1075 516 
Q 1375 441 1709 441 
Q 2250 441 2565 725 
Q 2881 1009 2881 1497 
Q 2881 1984 2565 2268 
Q 2250 2553 1709 2553 
Q 1456 2553 1204 2497 
Q 953 2441 691 2322 
L 691 4666 
z
" id="DejaVuSans-35" transform="scale(0.015625)"/>
       </defs>
       <use xlink:href="#DejaVuSans-35"/>
      </g>
     </g>
    </g>
   </g>
   <g id="LineCollection_1">
    <path clip-path="url(#p8835d57e73)" d="M 93.257143 197.230553 
L 93.257143 197.189486 
" style="fill:none;stroke:#000000;stroke-width:10;"/>
    <path clip-path="url(#p8835d57e73)" d="M 157.028571 158.528227 
L 157.028571 158.256504 
" style="fill:none;stroke:#000000;stroke-width:10;"/>
    <path clip-path="url(#p8835d57e73)" d="M 220.8 66.046291 
L 220.8 65.273987 
" style="fill:none;stroke:#000000;stroke-width:10;"/>
    <path clip-path="url(#p8835d57e73)" d="M 284.571429 120.179596 
L 284.571429 119.684839 
" style="fill:none;stroke:#000000;stroke-width:10;"/>
    <path clip-path="url(#p8835d57e73)" d="M 348.342857 89.228768 
L 348.342857 88.427216 
" style="fill:none;stroke:#000000;stroke-width:10;"/>
    <path clip-path="url(#p8835d57e73)" d="M 412.114286 127.516432 
L 412.114286 126.856373 
" style="fill:none;stroke:#000000;stroke-width:10;"/>
    <path clip-path="url(#p8835d57e73)" d="M 475.885714 135.870426 
L 475.885714 135.100194 
" style="fill:none;stroke:#000000;stroke-width:10;"/>
   </g>
   <g id="LineCollection_2">
    <path clip-path="url(#p8835d57e73)" d="M 114.514286 199.021627 
L 114.514286 199.005599 
" style="fill:none;stroke:#000000;stroke-width:10;"/>
    <path clip-path="url(#p8835d57e73)" d="M 178.285714 159.672353 
L 178.285714 159.512951 
" style="fill:none;stroke:#000000;stroke-width:10;"/>
    <path clip-path="url(#p8835d57e73)" d="M 242.057143 59.531785 
L 242.057143 59.04 
" style="fill:none;stroke:#000000;stroke-width:10;"/>
    <path clip-path="url(#p8835d57e73)" d="M 305.828571 119.693671 
L 305.828571 119.333722 
" style="fill:none;stroke:#000000;stroke-width:10;"/>
    <path clip-path="url(#p8835d57e73)" d="M 369.6 87.1359 
L 369.6 86.502552 
" style="fill:none;stroke:#000000;stroke-width:10;"/>
    <path clip-path="url(#p8835d57e73)" d="M 433.371429 127.647348 
L 433.371429 127.096902 
" style="fill:none;stroke:#000000;stroke-width:10;"/>
    <path clip-path="url(#p8835d57e73)" d="M 497.142857 135.642377 
L 497.142857 134.956012 
" style="fill:none;stroke:#000000;stroke-width:10;"/>
   </g>
   <g id="line2d_7">
    <defs>
     <path d="M 5 0 
L -5 -0 
" id="m26fca7d4c5" style="stroke:#000000;"/>
    </defs>
    <g clip-path="url(#p8835d57e73)">
     <use style="stroke:#000000;" x="93.257143" xlink:href="#m26fca7d4c5" y="197.230553"/>
     <use style="stroke:#000000;" x="157.028571" xlink:href="#m26fca7d4c5" y="158.528227"/>
     <use style="stroke:#000000;" x="220.8" xlink:href="#m26fca7d4c5" y="66.046291"/>
     <use style="stroke:#000000;" x="284.571429" xlink:href="#m26fca7d4c5" y="120.179596"/>
     <use style="stroke:#000000;" x="348.342857" xlink:href="#m26fca7d4c5" y="89.228768"/>
     <use style="stroke:#000000;" x="412.114286" xlink:href="#m26fca7d4c5" y="127.516432"/>
     <use style="stroke:#000000;" x="475.885714" xlink:href="#m26fca7d4c5" y="135.870426"/>
    </g>
   </g>
   <g id="line2d_8">
    <g clip-path="url(#p8835d57e73)">
     <use style="stroke:#000000;" x="93.257143" xlink:href="#m26fca7d4c5" y="197.189486"/>
     <use style="stroke:#000000;" x="157.028571" xlink:href="#m26fca7d4c5" y="158.256504"/>
     <use style="stroke:#000000;" x="220.8" xlink:href="#m26fca7d4c5" y="65.273987"/>
     <use style="stroke:#000000;" x="284.571429" xlink:href="#m26fca7d4c5" y="119.684839"/>
     <use style="stroke:#000000;" x="348.342857" xlink:href="#m26fca7d4c5" y="88.427216"/>
     <use style="stroke:#000000;" x="412.114286" xlink:href="#m26fca7d4c5" y="126.856373"/>
     <use style="stroke:#000000;" x="475.885714" xlink:href="#m26fca7d4c5" y="135.100194"/>
    </g>
   </g>
   <g id="line2d_9">
    <g clip-path="url(#p8835d57e73)">
     <use style="stroke:#000000;" x="114.514286" xlink:href="#m26fca7d4c5" y="199.021627"/>
     <use style="stroke:#000000;" x="178.285714" xlink:href="#m26fca7d4c5" y="159.672353"/>
     <use style="stroke:#000000;" x="242.057143" xlink:href="#m26fca7d4c5" y="59.531785"/>
     <use style="stroke:#000000;" x="305.828571" xlink:href="#m26fca7d4c5" y="119.693671"/>
     <use style="stroke:#000000;" x="369.6" xlink:href="#m26fca7d4c5" y="87.1359"/>
     <use style="stroke:#000000;" x="433.371429" xlink:href="#m26fca7d4c5" y="127.647348"/>
     <use style="stroke:#000000;" x="497.142857" xlink:href="#m26fca7d4c5" y="135.642377"/>
    </g>
   </g>
   <g id="line2d_10">
    <g clip-path="url(#p8835d57e73)">
     <use style="stroke:#000000;" x="114.514286" xlink:href="#m26fca7d4c5" y="199.005599"/>
     <use style="stroke:#000000;" x="178.285714" xlink:href="#m26fca7d4c5" y="159.512951"/>
     <use style="stroke:#000000;" x="242.057143" xlink:href="#m26fca7d4c5" y="59.04"/>
     <use style="stroke:#000000;" x="305.828571" xlink:href="#m26fca7d4c5" y="119.333722"/>
     <use style="stroke:#000000;" x="369.6" xlink:href="#m26fca7d4c5" y="86.502552"/>
     <use style="stroke:#000000;" x="433.371429" xlink:href="#m26fca7d4c5" y="127.096902"/>
     <use style="stroke:#000000;" x="497.142857" xlink:href="#m26fca7d4c5" y="134.956012"/>
    </g>
   </g>
   <g id="patch_17">
    <path d="M 72 203.04 
L 72 51.84 
" style="fill:none;stroke:#000000;stroke-linecap:square;stroke-linejoin:miter;stroke-width:0.8;"/>
   </g>
   <g id="patch_18">
    <path d="M 518.4 203.04 
L 518.4 51.84 
" style="fill:none;"/>
   </g>
   <g id="patch_19">
    <path d="M 72 203.04 
L 518.4 203.04 
" style="fill:none;"/>
   </g>
   <g id="patch_20">
    <path d="M 72 51.84 
L 518.4 51.84 
" style="fill:none;"/>
   </g>
   <g id="text_7">
    <!-- $\mathrm{0-1}$ -->
    <g transform="translate(102.014286 212.638437)scale(0.1 -0.1)">
     <defs>
      <path d="M 678 2272 
L 4684 2272 
L 4684 1741 
L 678 1741 
L 678 2272 
z
" id="DejaVuSans-2212" transform="scale(0.015625)"/>
     </defs>
     <use transform="translate(0 0.78125)" xlink:href="#DejaVuSans-30"/>
     <use transform="translate(83.105469 0.78125)" xlink:href="#DejaVuSans-2212"/>
     <use transform="translate(186.376953 0.78125)" xlink:href="#DejaVuSans-31"/>
    </g>
   </g>
   <g id="text_8">
    <!-- $\mathrm{1-2}$ -->
    <g transform="translate(165.785714 212.638437)scale(0.1 -0.1)">
     <use transform="translate(0 0.78125)" xlink:href="#DejaVuSans-31"/>
     <use transform="translate(83.105469 0.78125)" xlink:href="#DejaVuSans-2212"/>
     <use transform="translate(186.376953 0.78125)" xlink:href="#DejaVuSans-32"/>
    </g>
   </g>
   <g id="text_9">
    <!-- $\mathrm{2-3}$ -->
    <g transform="translate(229.557143 212.638437)scale(0.1 -0.1)">
     <use transform="translate(0 0.78125)" xlink:href="#DejaVuSans-32"/>
     <use transform="translate(83.105469 0.78125)" xlink:href="#DejaVuSans-2212"/>
     <use transform="translate(186.376953 0.78125)" xlink:href="#DejaVuSans-33"/>
    </g>
   </g>
   <g id="text_10">
    <!-- $\mathrm{3-4}$ -->
    <g transform="translate(293.328571 212.638437)scale(0.1 -0.1)">
     <use transform="translate(0 0.78125)" xlink:href="#DejaVuSans-33"/>
     <use transform="translate(83.105469 0.78125)" xlink:href="#DejaVuSans-2212"/>
     <use transform="translate(186.376953 0.78125)" xlink:href="#DejaVuSans-34"/>
    </g>
   </g>
   <g id="text_11">
    <!-- $\mathrm{4-5}$ -->
    <g transform="translate(357.1 212.638437)scale(0.1 -0.1)">
     <use transform="translate(0 0.09375)" xlink:href="#DejaVuSans-34"/>
     <use transform="translate(83.105469 0.09375)" xlink:href="#DejaVuSans-2212"/>
     <use transform="translate(186.376953 0.09375)" xlink:href="#DejaVuSans-35"/>
    </g>
   </g>
   <g id="text_12">
    <!-- $\mathrm{5-6}$ -->
    <g transform="translate(420.871429 212.638437)scale(0.1 -0.1)">
     <defs>
      <path d="M 2113 2584 
Q 1688 2584 1439 2293 
Q 1191 2003 1191 1497 
Q 1191 994 1439 701 
Q 1688 409 2113 409 
Q 2538 409 2786 701 
Q 3034 994 3034 1497 
Q 3034 2003 2786 2293 
Q 2538 2584 2113 2584 
z
M 3366 4563 
L 3366 3988 
Q 3128 4100 2886 4159 
Q 2644 4219 2406 4219 
Q 1781 4219 1451 3797 
Q 1122 3375 1075 2522 
Q 1259 2794 1537 2939 
Q 1816 3084 2150 3084 
Q 2853 3084 3261 2657 
Q 3669 2231 3669 1497 
Q 3669 778 3244 343 
Q 2819 -91 2113 -91 
Q 1303 -91 875 529 
Q 447 1150 447 2328 
Q 447 3434 972 4092 
Q 1497 4750 2381 4750 
Q 2619 4750 2861 4703 
Q 3103 4656 3366 4563 
z
" id="DejaVuSans-36" transform="scale(0.015625)"/>
     </defs>
     <use transform="translate(0 0.78125)" xlink:href="#DejaVuSans-35"/>
     <use transform="translate(83.105469 0.78125)" xlink:href="#DejaVuSans-2212"/>
     <use transform="translate(186.376953 0.78125)" xlink:href="#DejaVuSans-36"/>
    </g>
   </g>
   <g id="text_13">
    <!-- $\mathrm{6-7}$ -->
    <g transform="translate(484.642857 212.638437)scale(0.1 -0.1)">
     <defs>
      <path d="M 525 4666 
L 3525 4666 
L 3525 4397 
L 1831 0 
L 1172 0 
L 2766 4134 
L 525 4134 
L 525 4666 
z
" id="DejaVuSans-37" transform="scale(0.015625)"/>
     </defs>
     <use transform="translate(0 0.78125)" xlink:href="#DejaVuSans-36"/>
     <use transform="translate(83.105469 0.78125)" xlink:href="#DejaVuSans-2212"/>
     <use transform="translate(186.376953 0.78125)" xlink:href="#DejaVuSans-37"/>
    </g>
   </g>
  </g>
  <g id="axes_2">
   <g id="patch_21">
    <path d="M 72 384.48 
L 518.4 384.48 
L 518.4 233.28 
L 72 233.28 
z
" style="fill:#ffffff;"/>
   </g>
   <g id="patch_22">
    <path clip-path="url(#p3ea419b493)" d="M 82.628571 384.48 
L 103.885714 384.48 
L 103.885714 241.606607 
L 82.628571 241.606607 
z
" style="fill:#c45aec;"/>
   </g>
   <g id="patch_23">
    <path clip-path="url(#p3ea419b493)" d="M 146.4 384.48 
L 167.657143 384.48 
L 167.657143 276.304361 
L 146.4 276.304361 
z
" style="fill:#c45aec;"/>
   </g>
   <g id="patch_24">
    <path clip-path="url(#p3ea419b493)" d="M 210.171429 384.48 
L 231.428571 384.48 
L 231.428571 277.825214 
L 210.171429 277.825214 
z
" style="fill:#c45aec;"/>
   </g>
   <g id="patch_25">
    <path clip-path="url(#p3ea419b493)" d="M 273.942857 384.48 
L 295.2 384.48 
L 295.2 310.945107 
L 273.942857 310.945107 
z
" style="fill:#c45aec;"/>
   </g>
   <g id="patch_26">
    <path clip-path="url(#p3ea419b493)" d="M 337.714286 384.48 
L 358.971429 384.48 
L 358.971429 360.712322 
L 337.714286 360.712322 
z
" style="fill:#c45aec;"/>
   </g>
   <g id="patch_27">
    <path clip-path="url(#p3ea419b493)" d="M 401.485714 384.48 
L 422.742857 384.48 
L 422.742857 381.470676 
L 401.485714 381.470676 
z
" style="fill:#c45aec;"/>
   </g>
   <g id="patch_28">
    <path clip-path="url(#p3ea419b493)" d="M 103.885714 384.48 
L 125.142857 384.48 
L 125.142857 251.247047 
L 103.885714 251.247047 
z
" style="fill:#f9b7ff;"/>
   </g>
   <g id="patch_29">
    <path clip-path="url(#p3ea419b493)" d="M 167.657143 384.48 
L 188.914286 384.48 
L 188.914286 283.506691 
L 167.657143 283.506691 
z
" style="fill:#f9b7ff;"/>
   </g>
   <g id="patch_30">
    <path clip-path="url(#p3ea419b493)" d="M 231.428571 384.48 
L 252.685714 384.48 
L 252.685714 273.593756 
L 231.428571 273.593756 
z
" style="fill:#f9b7ff;"/>
   </g>
   <g id="patch_31">
    <path clip-path="url(#p3ea419b493)" d="M 295.2 384.48 
L 316.457143 384.48 
L 316.457143 307.512758 
L 295.2 307.512758 
z
" style="fill:#f9b7ff;"/>
   </g>
   <g id="patch_32">
    <path clip-path="url(#p3ea419b493)" d="M 358.971429 384.48 
L 380.228571 384.48 
L 380.228571 361.794384 
L 358.971429 361.794384 
z
" style="fill:#f9b7ff;"/>
   </g>
   <g id="patch_33">
    <path clip-path="url(#p3ea419b493)" d="M 422.742857 384.48 
L 444 384.48 
L 444 382.388109 
L 422.742857 382.388109 
z
" style="fill:#f9b7ff;"/>
   </g>
   <g id="matplotlib.axis_3"/>
   <g id="matplotlib.axis_4">
    <g id="ytick_7">
     <g id="line2d_11">
      <g>
       <use style="stroke:#000000;stroke-width:0.8;" x="72" xlink:href="#me66453a201" y="384.48"/>
      </g>
     </g>
     <g id="text_14">
      <!-- 0.0 -->
      <g transform="translate(49.096875 388.279219)scale(0.1 -0.1)">
       <defs>
        <path d="M 684 794 
L 1344 794 
L 1344 0 
L 684 0 
L 684 794 
z
" id="DejaVuSans-2e" transform="scale(0.015625)"/>
       </defs>
       <use xlink:href="#DejaVuSans-30"/>
       <use x="63.623047" xlink:href="#DejaVuSans-2e"/>
       <use x="95.410156" xlink:href="#DejaVuSans-30"/>
      </g>
     </g>
    </g>
    <g id="ytick_8">
     <g id="line2d_12">
      <g>
       <use style="stroke:#000000;stroke-width:0.8;" x="72" xlink:href="#me66453a201" y="359.708366"/>
      </g>
     </g>
     <g id="text_15">
      <!-- 0.5 -->
      <g transform="translate(49.096875 363.507584)scale(0.1 -0.1)">
       <use xlink:href="#DejaVuSans-30"/>
       <use x="63.623047" xlink:href="#DejaVuSans-2e"/>
       <use x="95.410156" xlink:href="#DejaVuSans-35"/>
      </g>
     </g>
    </g>
    <g id="ytick_9">
     <g id="line2d_13">
      <g>
       <use style="stroke:#000000;stroke-width:0.8;" x="72" xlink:href="#me66453a201" y="334.936731"/>
      </g>
     </g>
     <g id="text_16">
      <!-- 1.0 -->
      <g transform="translate(49.096875 338.73595)scale(0.1 -0.1)">
       <use xlink:href="#DejaVuSans-31"/>
       <use x="63.623047" xlink:href="#DejaVuSans-2e"/>
       <use x="95.410156" xlink:href="#DejaVuSans-30"/>
      </g>
     </g>
    </g>
    <g id="ytick_10">
     <g id="line2d_14">
      <g>
       <use style="stroke:#000000;stroke-width:0.8;" x="72" xlink:href="#me66453a201" y="310.165097"/>
      </g>
     </g>
     <g id="text_17">
      <!-- 1.5 -->
      <g transform="translate(49.096875 313.964315)scale(0.1 -0.1)">
       <use xlink:href="#DejaVuSans-31"/>
       <use x="63.623047" xlink:href="#DejaVuSans-2e"/>
       <use x="95.410156" xlink:href="#DejaVuSans-35"/>
      </g>
     </g>
    </g>
    <g id="ytick_11">
     <g id="line2d_15">
      <g>
       <use style="stroke:#000000;stroke-width:0.8;" x="72" xlink:href="#me66453a201" y="285.393462"/>
      </g>
     </g>
     <g id="text_18">
      <!-- 2.0 -->
      <g transform="translate(49.096875 289.192681)scale(0.1 -0.1)">
       <use xlink:href="#DejaVuSans-32"/>
       <use x="63.623047" xlink:href="#DejaVuSans-2e"/>
       <use x="95.410156" xlink:href="#DejaVuSans-30"/>
      </g>
     </g>
    </g>
    <g id="ytick_12">
     <g id="line2d_16">
      <g>
       <use style="stroke:#000000;stroke-width:0.8;" x="72" xlink:href="#me66453a201" y="260.621828"/>
      </g>
     </g>
     <g id="text_19">
      <!-- 2.5 -->
      <g transform="translate(49.096875 264.421047)scale(0.1 -0.1)">
       <use xlink:href="#DejaVuSans-32"/>
       <use x="63.623047" xlink:href="#DejaVuSans-2e"/>
       <use x="95.410156" xlink:href="#DejaVuSans-35"/>
      </g>
     </g>
    </g>
    <g id="ytick_13">
     <g id="line2d_17">
      <g>
       <use style="stroke:#000000;stroke-width:0.8;" x="72" xlink:href="#me66453a201" y="235.850193"/>
      </g>
     </g>
     <g id="text_20">
      <!-- 3.0 -->
      <g transform="translate(49.096875 239.649412)scale(0.1 -0.1)">
       <use xlink:href="#DejaVuSans-33"/>
       <use x="63.623047" xlink:href="#DejaVuSans-2e"/>
       <use x="95.410156" xlink:href="#DejaVuSans-30"/>
      </g>
     </g>
    </g>
   </g>
   <g id="LineCollection_3">
    <path clip-path="url(#p3ea419b493)" d="M 93.257143 242.733214 
L 93.257143 240.48 
" style="fill:none;stroke:#000000;stroke-width:10;"/>
    <path clip-path="url(#p3ea419b493)" d="M 157.028571 277.178351 
L 157.028571 275.430371 
" style="fill:none;stroke:#000000;stroke-width:10;"/>
    <path clip-path="url(#p3ea419b493)" d="M 220.8 278.39721 
L 220.8 277.253218 
" style="fill:none;stroke:#000000;stroke-width:10;"/>
    <path clip-path="url(#p3ea419b493)" d="M 284.571429 311.258699 
L 284.571429 310.631515 
" style="fill:none;stroke:#000000;stroke-width:10;"/>
    <path clip-path="url(#p3ea419b493)" d="M 348.342857 360.820813 
L 348.342857 360.603831 
" style="fill:none;stroke:#000000;stroke-width:10;"/>
    <path clip-path="url(#p3ea419b493)" d="M 412.114286 381.487582 
L 412.114286 381.45377 
" style="fill:none;stroke:#000000;stroke-width:10;"/>
   </g>
   <g id="LineCollection_4">
    <path clip-path="url(#p3ea419b493)" d="M 114.514286 252.206164 
L 114.514286 250.287931 
" style="fill:none;stroke:#000000;stroke-width:10;"/>
    <path clip-path="url(#p3ea419b493)" d="M 178.285714 284.192943 
L 178.285714 282.82044 
" style="fill:none;stroke:#000000;stroke-width:10;"/>
    <path clip-path="url(#p3ea419b493)" d="M 242.057143 273.96584 
L 242.057143 273.221672 
" style="fill:none;stroke:#000000;stroke-width:10;"/>
    <path clip-path="url(#p3ea419b493)" d="M 305.828571 307.704634 
L 305.828571 307.320881 
" style="fill:none;stroke:#000000;stroke-width:10;"/>
    <path clip-path="url(#p3ea419b493)" d="M 369.6 361.854933 
L 369.6 361.733836 
" style="fill:none;stroke:#000000;stroke-width:10;"/>
    <path clip-path="url(#p3ea419b493)" d="M 433.371429 382.39394 
L 433.371429 382.382277 
" style="fill:none;stroke:#000000;stroke-width:10;"/>
   </g>
   <g id="line2d_18">
    <g clip-path="url(#p3ea419b493)">
     <use style="stroke:#000000;" x="93.257143" xlink:href="#m26fca7d4c5" y="242.733214"/>
     <use style="stroke:#000000;" x="157.028571" xlink:href="#m26fca7d4c5" y="277.178351"/>
     <use style="stroke:#000000;" x="220.8" xlink:href="#m26fca7d4c5" y="278.39721"/>
     <use style="stroke:#000000;" x="284.571429" xlink:href="#m26fca7d4c5" y="311.258699"/>
     <use style="stroke:#000000;" x="348.342857" xlink:href="#m26fca7d4c5" y="360.820813"/>
     <use style="stroke:#000000;" x="412.114286" xlink:href="#m26fca7d4c5" y="381.487582"/>
    </g>
   </g>
   <g id="line2d_19">
    <g clip-path="url(#p3ea419b493)">
     <use style="stroke:#000000;" x="93.257143" xlink:href="#m26fca7d4c5" y="240.48"/>
     <use style="stroke:#000000;" x="157.028571" xlink:href="#m26fca7d4c5" y="275.430371"/>
     <use style="stroke:#000000;" x="220.8" xlink:href="#m26fca7d4c5" y="277.253218"/>
     <use style="stroke:#000000;" x="284.571429" xlink:href="#m26fca7d4c5" y="310.631515"/>
     <use style="stroke:#000000;" x="348.342857" xlink:href="#m26fca7d4c5" y="360.603831"/>
     <use style="stroke:#000000;" x="412.114286" xlink:href="#m26fca7d4c5" y="381.45377"/>
    </g>
   </g>
   <g id="line2d_20">
    <g clip-path="url(#p3ea419b493)">
     <use style="stroke:#000000;" x="114.514286" xlink:href="#m26fca7d4c5" y="252.206164"/>
     <use style="stroke:#000000;" x="178.285714" xlink:href="#m26fca7d4c5" y="284.192943"/>
     <use style="stroke:#000000;" x="242.057143" xlink:href="#m26fca7d4c5" y="273.96584"/>
     <use style="stroke:#000000;" x="305.828571" xlink:href="#m26fca7d4c5" y="307.704634"/>
     <use style="stroke:#000000;" x="369.6" xlink:href="#m26fca7d4c5" y="361.854933"/>
     <use style="stroke:#000000;" x="433.371429" xlink:href="#m26fca7d4c5" y="382.39394"/>
    </g>
   </g>
   <g id="line2d_21">
    <g clip-path="url(#p3ea419b493)">
     <use style="stroke:#000000;" x="114.514286" xlink:href="#m26fca7d4c5" y="250.287931"/>
     <use style="stroke:#000000;" x="178.285714" xlink:href="#m26fca7d4c5" y="282.82044"/>
     <use style="stroke:#000000;" x="242.057143" xlink:href="#m26fca7d4c5" y="273.221672"/>
     <use style="stroke:#000000;" x="305.828571" xlink:href="#m26fca7d4c5" y="307.320881"/>
     <use style="stroke:#000000;" x="369.6" xlink:href="#m26fca7d4c5" y="361.733836"/>
     <use style="stroke:#000000;" x="433.371429" xlink:href="#m26fca7d4c5" y="382.382277"/>
    </g>
   </g>
   <g id="patch_34">
    <path d="M 72 384.48 
L 72 233.28 
" style="fill:none;stroke:#000000;stroke-linecap:square;stroke-linejoin:miter;stroke-width:0.8;"/>
   </g>
   <g id="patch_35">
    <path d="M 518.4 384.48 
L 518.4 233.28 
" style="fill:none;"/>
   </g>
   <g id="patch_36">
    <path d="M 72 384.48 
L 518.4 384.48 
" style="fill:none;"/>
   </g>
   <g id="patch_37">
    <path d="M 72 233.28 
L 518.4 233.28 
" style="fill:none;"/>
   </g>
   <g id="text_21">
    <!-- $\mathrm{7-8}$ -->
    <g transform="translate(102.014286 394.078438)scale(0.1 -0.1)">
     <defs>
      <path d="M 2034 2216 
Q 1584 2216 1326 1975 
Q 1069 1734 1069 1313 
Q 1069 891 1326 650 
Q 1584 409 2034 409 
Q 2484 409 2743 651 
Q 3003 894 3003 1313 
Q 3003 1734 2745 1975 
Q 2488 2216 2034 2216 
z
M 1403 2484 
Q 997 2584 770 2862 
Q 544 3141 544 3541 
Q 544 4100 942 4425 
Q 1341 4750 2034 4750 
Q 2731 4750 3128 4425 
Q 3525 4100 3525 3541 
Q 3525 3141 3298 2862 
Q 3072 2584 2669 2484 
Q 3125 2378 3379 2068 
Q 3634 1759 3634 1313 
Q 3634 634 3220 271 
Q 2806 -91 2034 -91 
Q 1263 -91 848 271 
Q 434 634 434 1313 
Q 434 1759 690 2068 
Q 947 2378 1403 2484 
z
M 1172 3481 
Q 1172 3119 1398 2916 
Q 1625 2713 2034 2713 
Q 2441 2713 2670 2916 
Q 2900 3119 2900 3481 
Q 2900 3844 2670 4047 
Q 2441 4250 2034 4250 
Q 1625 4250 1398 4047 
Q 1172 3844 1172 3481 
z
" id="DejaVuSans-38" transform="scale(0.015625)"/>
     </defs>
     <use transform="translate(0 0.78125)" xlink:href="#DejaVuSans-37"/>
     <use transform="translate(83.105469 0.78125)" xlink:href="#DejaVuSans-2212"/>
     <use transform="translate(186.376953 0.78125)" xlink:href="#DejaVuSans-38"/>
    </g>
   </g>
   <g id="text_22">
    <!-- $\mathrm{8-9}$ -->
    <g transform="translate(165.785714 394.078438)scale(0.1 -0.1)">
     <defs>
      <path d="M 703 97 
L 703 672 
Q 941 559 1184 500 
Q 1428 441 1663 441 
Q 2288 441 2617 861 
Q 2947 1281 2994 2138 
Q 2813 1869 2534 1725 
Q 2256 1581 1919 1581 
Q 1219 1581 811 2004 
Q 403 2428 403 3163 
Q 403 3881 828 4315 
Q 1253 4750 1959 4750 
Q 2769 4750 3195 4129 
Q 3622 3509 3622 2328 
Q 3622 1225 3098 567 
Q 2575 -91 1691 -91 
Q 1453 -91 1209 -44 
Q 966 3 703 97 
z
M 1959 2075 
Q 2384 2075 2632 2365 
Q 2881 2656 2881 3163 
Q 2881 3666 2632 3958 
Q 2384 4250 1959 4250 
Q 1534 4250 1286 3958 
Q 1038 3666 1038 3163 
Q 1038 2656 1286 2365 
Q 1534 2075 1959 2075 
z
" id="DejaVuSans-39" transform="scale(0.015625)"/>
     </defs>
     <use transform="translate(0 0.78125)" xlink:href="#DejaVuSans-38"/>
     <use transform="translate(83.105469 0.78125)" xlink:href="#DejaVuSans-2212"/>
     <use transform="translate(186.376953 0.78125)" xlink:href="#DejaVuSans-39"/>
    </g>
   </g>
   <g id="text_23">
    <!-- $\mathrm{9-10}$ -->
    <g transform="translate(226.357143 394.078438)scale(0.1 -0.1)">
     <use transform="translate(0 0.78125)" xlink:href="#DejaVuSans-39"/>
     <use transform="translate(83.105469 0.78125)" xlink:href="#DejaVuSans-2212"/>
     <use transform="translate(186.376953 0.78125)" xlink:href="#DejaVuSans-31"/>
     <use transform="translate(250 0.78125)" xlink:href="#DejaVuSans-30"/>
    </g>
   </g>
   <g id="text_24">
    <!-- $\mathrm{10-11}$ -->
    <g transform="translate(286.928571 394.078438)scale(0.1 -0.1)">
     <use transform="translate(0 0.78125)" xlink:href="#DejaVuSans-31"/>
     <use transform="translate(63.623047 0.78125)" xlink:href="#DejaVuSans-30"/>
     <use transform="translate(146.728516 0.78125)" xlink:href="#DejaVuSans-2212"/>
     <use transform="translate(250 0.78125)" xlink:href="#DejaVuSans-31"/>
     <use transform="translate(313.623047 0.78125)" xlink:href="#DejaVuSans-31"/>
    </g>
   </g>
   <g id="text_25">
    <!-- $\mathrm{11-12}$ -->
    <g transform="translate(350.7 394.078438)scale(0.1 -0.1)">
     <use transform="translate(0 0.78125)" xlink:href="#DejaVuSans-31"/>
     <use transform="translate(63.623047 0.78125)" xlink:href="#DejaVuSans-31"/>
     <use transform="translate(146.728516 0.78125)" xlink:href="#DejaVuSans-2212"/>
     <use transform="translate(250 0.78125)" xlink:href="#DejaVuSans-31"/>
     <use transform="translate(313.623047 0.78125)" xlink:href="#DejaVuSans-32"/>
    </g>
   </g>
   <g id="text_26">
    <!-- $\mathrm{12-13}$ -->
    <g transform="translate(414.471429 394.078438)scale(0.1 -0.1)">
     <use transform="translate(0 0.78125)" xlink:href="#DejaVuSans-31"/>
     <use transform="translate(63.623047 0.78125)" xlink:href="#DejaVuSans-32"/>
     <use transform="translate(146.728516 0.78125)" xlink:href="#DejaVuSans-2212"/>
     <use transform="translate(250 0.78125)" xlink:href="#DejaVuSans-31"/>
     <use transform="translate(313.623047 0.78125)" xlink:href="#DejaVuSans-33"/>
    </g>
   </g>
   <g id="legend_1">
    <g id="patch_38">
     <path d="M 362.3 265.1225 
L 512.8 265.1225 
Q 514.4 265.1225 514.4 263.5225 
L 514.4 238.88 
Q 514.4 237.28 512.8 237.28 
L 362.3 237.28 
Q 360.7 237.28 360.7 238.88 
L 360.7 263.5225 
Q 360.7 265.1225 362.3 265.1225 
z
" style="fill:#ffffff;opacity:0.5;stroke:#cccccc;stroke-linejoin:miter;"/>
    </g>
    <g id="text_27">
     <!-- $\Delta G$ (kcal/mol)$\mathit{vs.}$ lambda pair -->
     <g transform="translate(363.9 248.08)scale(0.1 -0.1)">
      <defs>
       <path d="M 2188 4044 
L 906 525 
L 3472 525 
L 2188 4044 
z
M 50 0 
L 1831 4666 
L 2547 4666 
L 4325 0 
L 50 0 
z
" id="DejaVuSans-394" transform="scale(0.015625)"/>
       <path d="M 3494 697 
L 3738 1919 
L 2700 1919 
L 2797 2438 
L 4453 2438 
L 4050 384 
Q 3634 156 3143 32 
Q 2653 -91 2156 -91 
Q 1278 -91 783 396 
Q 288 884 288 1753 
Q 288 2475 589 3126 
Q 891 3778 1422 4213 
Q 1756 4484 2153 4617 
Q 2550 4750 3034 4750 
Q 3472 4750 3873 4639 
Q 4275 4528 4641 4306 
L 4513 3634 
Q 4231 3928 3853 4083 
Q 3475 4238 3047 4238 
Q 2550 4238 2172 4048 
Q 1794 3859 1497 3463 
Q 1244 3125 1098 2667 
Q 953 2209 953 1734 
Q 953 1081 1287 751 
Q 1622 422 2284 422 
Q 2616 422 2925 492 
Q 3234 563 3494 697 
z
" id="DejaVuSans-Oblique-47" transform="scale(0.015625)"/>
       <path id="DejaVuSans-20" transform="scale(0.015625)"/>
       <path d="M 1984 4856 
Q 1566 4138 1362 3434 
Q 1159 2731 1159 2009 
Q 1159 1288 1364 580 
Q 1569 -128 1984 -844 
L 1484 -844 
Q 1016 -109 783 600 
Q 550 1309 550 2009 
Q 550 2706 781 3412 
Q 1013 4119 1484 4856 
L 1984 4856 
z
" id="DejaVuSans-28" transform="scale(0.015625)"/>
       <path d="M 581 4863 
L 1159 4863 
L 1159 1991 
L 2875 3500 
L 3609 3500 
L 1753 1863 
L 3688 0 
L 2938 0 
L 1159 1709 
L 1159 0 
L 581 0 
L 581 4863 
z
" id="DejaVuSans-6b" transform="scale(0.015625)"/>
       <path d="M 3122 3366 
L 3122 2828 
Q 2878 2963 2633 3030 
Q 2388 3097 2138 3097 
Q 1578 3097 1268 2742 
Q 959 2388 959 1747 
Q 959 1106 1268 751 
Q 1578 397 2138 397 
Q 2388 397 2633 464 
Q 2878 531 3122 666 
L 3122 134 
Q 2881 22 2623 -34 
Q 2366 -91 2075 -91 
Q 1284 -91 818 406 
Q 353 903 353 1747 
Q 353 2603 823 3093 
Q 1294 3584 2113 3584 
Q 2378 3584 2631 3529 
Q 2884 3475 3122 3366 
z
" id="DejaVuSans-63" transform="scale(0.015625)"/>
       <path d="M 2194 1759 
Q 1497 1759 1228 1600 
Q 959 1441 959 1056 
Q 959 750 1161 570 
Q 1363 391 1709 391 
Q 2188 391 2477 730 
Q 2766 1069 2766 1631 
L 2766 1759 
L 2194 1759 
z
M 3341 1997 
L 3341 0 
L 2766 0 
L 2766 531 
Q 2569 213 2275 61 
Q 1981 -91 1556 -91 
Q 1019 -91 701 211 
Q 384 513 384 1019 
Q 384 1609 779 1909 
Q 1175 2209 1959 2209 
L 2766 2209 
L 2766 2266 
Q 2766 2663 2505 2880 
Q 2244 3097 1772 3097 
Q 1472 3097 1187 3025 
Q 903 2953 641 2809 
L 641 3341 
Q 956 3463 1253 3523 
Q 1550 3584 1831 3584 
Q 2591 3584 2966 3190 
Q 3341 2797 3341 1997 
z
" id="DejaVuSans-61" transform="scale(0.015625)"/>
       <path d="M 603 4863 
L 1178 4863 
L 1178 0 
L 603 0 
L 603 4863 
z
" id="DejaVuSans-6c" transform="scale(0.015625)"/>
       <path d="M 1625 4666 
L 2156 4666 
L 531 -594 
L 0 -594 
L 1625 4666 
z
" id="DejaVuSans-2f" transform="scale(0.015625)"/>
       <path d="M 3328 2828 
Q 3544 3216 3844 3400 
Q 4144 3584 4550 3584 
Q 5097 3584 5394 3201 
Q 5691 2819 5691 2113 
L 5691 0 
L 5113 0 
L 5113 2094 
Q 5113 2597 4934 2840 
Q 4756 3084 4391 3084 
Q 3944 3084 3684 2787 
Q 3425 2491 3425 1978 
L 3425 0 
L 2847 0 
L 2847 2094 
Q 2847 2600 2669 2842 
Q 2491 3084 2119 3084 
Q 1678 3084 1418 2786 
Q 1159 2488 1159 1978 
L 1159 0 
L 581 0 
L 581 3500 
L 1159 3500 
L 1159 2956 
Q 1356 3278 1631 3431 
Q 1906 3584 2284 3584 
Q 2666 3584 2933 3390 
Q 3200 3197 3328 2828 
z
" id="DejaVuSans-6d" transform="scale(0.015625)"/>
       <path d="M 1959 3097 
Q 1497 3097 1228 2736 
Q 959 2375 959 1747 
Q 959 1119 1226 758 
Q 1494 397 1959 397 
Q 2419 397 2687 759 
Q 2956 1122 2956 1747 
Q 2956 2369 2687 2733 
Q 2419 3097 1959 3097 
z
M 1959 3584 
Q 2709 3584 3137 3096 
Q 3566 2609 3566 1747 
Q 3566 888 3137 398 
Q 2709 -91 1959 -91 
Q 1206 -91 779 398 
Q 353 888 353 1747 
Q 353 2609 779 3096 
Q 1206 3584 1959 3584 
z
" id="DejaVuSans-6f" transform="scale(0.015625)"/>
       <path d="M 513 4856 
L 1013 4856 
Q 1481 4119 1714 3412 
Q 1947 2706 1947 2009 
Q 1947 1309 1714 600 
Q 1481 -109 1013 -844 
L 513 -844 
Q 928 -128 1133 580 
Q 1338 1288 1338 2009 
Q 1338 2731 1133 3434 
Q 928 4138 513 4856 
z
" id="DejaVuSans-29" transform="scale(0.015625)"/>
       <path d="M 459 3500 
L 1069 3500 
L 1581 525 
L 3256 3500 
L 3866 3500 
L 1875 0 
L 1100 0 
L 459 3500 
z
" id="DejaVuSans-Oblique-76" transform="scale(0.015625)"/>
       <path d="M 3200 3397 
L 3091 2853 
Q 2863 2978 2609 3040 
Q 2356 3103 2088 3103 
Q 1634 3103 1373 2948 
Q 1113 2794 1113 2528 
Q 1113 2219 1719 2053 
Q 1766 2041 1788 2034 
L 1972 1978 
Q 2547 1819 2739 1644 
Q 2931 1469 2931 1166 
Q 2931 609 2489 259 
Q 2047 -91 1331 -91 
Q 1053 -91 747 -37 
Q 441 16 72 128 
L 184 722 
Q 500 559 806 475 
Q 1113 391 1394 391 
Q 1816 391 2080 572 
Q 2344 753 2344 1031 
Q 2344 1331 1650 1516 
L 1591 1531 
L 1394 1581 
Q 956 1697 753 1886 
Q 550 2075 550 2369 
Q 550 2928 970 3256 
Q 1391 3584 2113 3584 
Q 2397 3584 2667 3537 
Q 2938 3491 3200 3397 
z
" id="DejaVuSans-Oblique-73" transform="scale(0.015625)"/>
       <path d="M 3116 1747 
Q 3116 2381 2855 2742 
Q 2594 3103 2138 3103 
Q 1681 3103 1420 2742 
Q 1159 2381 1159 1747 
Q 1159 1113 1420 752 
Q 1681 391 2138 391 
Q 2594 391 2855 752 
Q 3116 1113 3116 1747 
z
M 1159 2969 
Q 1341 3281 1617 3432 
Q 1894 3584 2278 3584 
Q 2916 3584 3314 3078 
Q 3713 2572 3713 1747 
Q 3713 922 3314 415 
Q 2916 -91 2278 -91 
Q 1894 -91 1617 61 
Q 1341 213 1159 525 
L 1159 0 
L 581 0 
L 581 4863 
L 1159 4863 
L 1159 2969 
z
" id="DejaVuSans-62" transform="scale(0.015625)"/>
       <path d="M 2906 2969 
L 2906 4863 
L 3481 4863 
L 3481 0 
L 2906 0 
L 2906 525 
Q 2725 213 2448 61 
Q 2172 -91 1784 -91 
Q 1150 -91 751 415 
Q 353 922 353 1747 
Q 353 2572 751 3078 
Q 1150 3584 1784 3584 
Q 2172 3584 2448 3432 
Q 2725 3281 2906 2969 
z
M 947 1747 
Q 947 1113 1208 752 
Q 1469 391 1925 391 
Q 2381 391 2643 752 
Q 2906 1113 2906 1747 
Q 2906 2381 2643 2742 
Q 2381 3103 1925 3103 
Q 1469 3103 1208 2742 
Q 947 2381 947 1747 
z
" id="DejaVuSans-64" transform="scale(0.015625)"/>
       <path d="M 1159 525 
L 1159 -1331 
L 581 -1331 
L 581 3500 
L 1159 3500 
L 1159 2969 
Q 1341 3281 1617 3432 
Q 1894 3584 2278 3584 
Q 2916 3584 3314 3078 
Q 3713 2572 3713 1747 
Q 3713 922 3314 415 
Q 2916 -91 2278 -91 
Q 1894 -91 1617 61 
Q 1341 213 1159 525 
z
M 3116 1747 
Q 3116 2381 2855 2742 
Q 2594 3103 2138 3103 
Q 1681 3103 1420 2742 
Q 1159 2381 1159 1747 
Q 1159 1113 1420 752 
Q 1681 391 2138 391 
Q 2594 391 2855 752 
Q 3116 1113 3116 1747 
z
" id="DejaVuSans-70" transform="scale(0.015625)"/>
       <path d="M 603 3500 
L 1178 3500 
L 1178 0 
L 603 0 
L 603 3500 
z
M 603 4863 
L 1178 4863 
L 1178 4134 
L 603 4134 
L 603 4863 
z
" id="DejaVuSans-69" transform="scale(0.015625)"/>
       <path d="M 2631 2963 
Q 2534 3019 2420 3045 
Q 2306 3072 2169 3072 
Q 1681 3072 1420 2755 
Q 1159 2438 1159 1844 
L 1159 0 
L 581 0 
L 581 3500 
L 1159 3500 
L 1159 2956 
Q 1341 3275 1631 3429 
Q 1922 3584 2338 3584 
Q 2397 3584 2469 3576 
Q 2541 3569 2628 3553 
L 2631 2963 
z
" id="DejaVuSans-72" transform="scale(0.015625)"/>
      </defs>
      <use transform="translate(0 0.015625)" xlink:href="#DejaVuSans-394"/>
      <use transform="translate(68.408203 0.015625)" xlink:href="#DejaVuSans-Oblique-47"/>
      <use transform="translate(145.898438 0.015625)" xlink:href="#DejaVuSans-20"/>
      <use transform="translate(177.685547 0.015625)" xlink:href="#DejaVuSans-28"/>
      <use transform="translate(216.699219 0.015625)" xlink:href="#DejaVuSans-6b"/>
      <use transform="translate(274.609375 0.015625)" xlink:href="#DejaVuSans-63"/>
      <use transform="translate(329.589844 0.015625)" xlink:href="#DejaVuSans-61"/>
      <use transform="translate(390.869141 0.015625)" xlink:href="#DejaVuSans-6c"/>
      <use transform="translate(418.652344 0.015625)" xlink:href="#DejaVuSans-2f"/>
      <use transform="translate(452.34375 0.015625)" xlink:href="#DejaVuSans-6d"/>
      <use transform="translate(549.755859 0.015625)" xlink:href="#DejaVuSans-6f"/>
      <use transform="translate(610.9375 0.015625)" xlink:href="#DejaVuSans-6c"/>
      <use transform="translate(638.720703 0.015625)" xlink:href="#DejaVuSans-29"/>
      <use transform="translate(677.734375 0.015625)" xlink:href="#DejaVuSans-Oblique-76"/>
      <use transform="translate(736.914062 0.015625)" xlink:href="#DejaVuSans-Oblique-73"/>
      <use transform="translate(789.013672 0.015625)" xlink:href="#DejaVuSans-2e"/>
      <use transform="translate(840.283203 0.015625)" xlink:href="#DejaVuSans-20"/>
      <use transform="translate(872.070312 0.015625)" xlink:href="#DejaVuSans-6c"/>
      <use transform="translate(899.853516 0.015625)" xlink:href="#DejaVuSans-61"/>
      <use transform="translate(961.132812 0.015625)" xlink:href="#DejaVuSans-6d"/>
      <use transform="translate(1058.544922 0.015625)" xlink:href="#DejaVuSans-62"/>
      <use transform="translate(1122.021484 0.015625)" xlink:href="#DejaVuSans-64"/>
      <use transform="translate(1185.498047 0.015625)" xlink:href="#DejaVuSans-61"/>
      <use transform="translate(1246.777344 0.015625)" xlink:href="#DejaVuSans-20"/>
      <use transform="translate(1278.564453 0.015625)" xlink:href="#DejaVuSans-70"/>
      <use transform="translate(1342.041016 0.015625)" xlink:href="#DejaVuSans-61"/>
      <use transform="translate(1403.320312 0.015625)" xlink:href="#DejaVuSans-69"/>
      <use transform="translate(1431.103516 0.015625)" xlink:href="#DejaVuSans-72"/>
     </g>
    </g>
    <g id="patch_39">
     <path d="M 391.815625 260.25875 
L 407.815625 260.25875 
L 407.815625 254.65875 
L 391.815625 254.65875 
z
" style="fill:#c45aec;"/>
    </g>
    <g id="text_28">
     <!-- TI -->
     <g transform="translate(414.215625 260.25875)scale(0.08 -0.08)">
      <defs>
       <path d="M -19 4666 
L 3928 4666 
L 3928 4134 
L 2272 4134 
L 2272 0 
L 1638 0 
L 1638 4134 
L -19 4134 
L -19 4666 
z
" id="DejaVuSans-54" transform="scale(0.015625)"/>
       <path d="M 628 4666 
L 1259 4666 
L 1259 0 
L 628 0 
L 628 4666 
z
" id="DejaVuSans-49" transform="scale(0.015625)"/>
      </defs>
      <use xlink:href="#DejaVuSans-54"/>
      <use x="61.083984" xlink:href="#DejaVuSans-49"/>
     </g>
    </g>
    <g id="patch_40">
     <path d="M 437.461875 260.25875 
L 453.461875 260.25875 
L 453.461875 254.65875 
L 437.461875 254.65875 
z
" style="fill:#f9b7ff;"/>
    </g>
    <g id="text_29">
     <!-- MBAR -->
     <g transform="translate(459.861875 260.25875)scale(0.08 -0.08)">
      <defs>
       <path d="M 628 4666 
L 1569 4666 
L 2759 1491 
L 3956 4666 
L 4897 4666 
L 4897 0 
L 4281 0 
L 4281 4097 
L 3078 897 
L 2444 897 
L 1241 4097 
L 1241 0 
L 628 0 
L 628 4666 
z
" id="DejaVuSans-4d" transform="scale(0.015625)"/>
       <path d="M 1259 2228 
L 1259 519 
L 2272 519 
Q 2781 519 3026 730 
Q 3272 941 3272 1375 
Q 3272 1813 3026 2020 
Q 2781 2228 2272 2228 
L 1259 2228 
z
M 1259 4147 
L 1259 2741 
L 2194 2741 
Q 2656 2741 2882 2914 
Q 3109 3088 3109 3444 
Q 3109 3797 2882 3972 
Q 2656 4147 2194 4147 
L 1259 4147 
z
M 628 4666 
L 2241 4666 
Q 2963 4666 3353 4366 
Q 3744 4066 3744 3513 
Q 3744 3084 3544 2831 
Q 3344 2578 2956 2516 
Q 3422 2416 3680 2098 
Q 3938 1781 3938 1306 
Q 3938 681 3513 340 
Q 3088 0 2303 0 
L 628 0 
L 628 4666 
z
" id="DejaVuSans-42" transform="scale(0.015625)"/>
       <path d="M 2188 4044 
L 1331 1722 
L 3047 1722 
L 2188 4044 
z
M 1831 4666 
L 2547 4666 
L 4325 0 
L 3669 0 
L 3244 1197 
L 1141 1197 
L 716 0 
L 50 0 
L 1831 4666 
z
" id="DejaVuSans-41" transform="scale(0.015625)"/>
       <path d="M 2841 2188 
Q 3044 2119 3236 1894 
Q 3428 1669 3622 1275 
L 4263 0 
L 3584 0 
L 2988 1197 
Q 2756 1666 2539 1819 
Q 2322 1972 1947 1972 
L 1259 1972 
L 1259 0 
L 628 0 
L 628 4666 
L 2053 4666 
Q 2853 4666 3247 4331 
Q 3641 3997 3641 3322 
Q 3641 2881 3436 2590 
Q 3231 2300 2841 2188 
z
M 1259 4147 
L 1259 2491 
L 2053 2491 
Q 2509 2491 2742 2702 
Q 2975 2913 2975 3322 
Q 2975 3731 2742 3939 
Q 2509 4147 2053 4147 
L 1259 4147 
z
" id="DejaVuSans-52" transform="scale(0.015625)"/>
      </defs>
      <use xlink:href="#DejaVuSans-4d"/>
      <use x="86.279297" xlink:href="#DejaVuSans-42"/>
      <use x="154.882812" xlink:href="#DejaVuSans-41"/>
      <use x="223.291016" xlink:href="#DejaVuSans-52"/>
     </g>
    </g>
   </g>
  </g>
 </g>
 <defs>
  <clipPath id="p8835d57e73">
   <rect height="151.2" width="446.4" x="72" y="51.84"/>
  </clipPath>
  <clipPath id="p3ea419b493">
   <rect height="151.2" width="446.4" x="72" y="233.28"/>
  </clipPath>
 </defs>
</svg>
